<svg width="30" height="30" viewBox="0 0 30 30" fill="none" xmlns="http://www.w3.org/2000/svg">
<path d="M24.4159 23.7028H6.29708V5.58396C6.29708 5.19783 5.97035 4.87109 5.58421 4.87109C5.19807 4.87109 4.87134 5.19783 4.87134 5.58396V24.4156C4.87134 24.8018 5.19807 25.1285 5.58421 25.1285H24.4159C24.802 25.1285 25.1288 24.8018 25.1288 24.4156C25.1288 24.0295 24.802 23.7028 24.4159 23.7028Z" fill="#A0A4AD"/>
<path d="M13.2177 20.9408V10.6636C13.2177 10.2774 12.891 9.95068 12.5049 9.95068C12.1187 9.95068 11.792 10.2774 11.792 10.6636V20.9705C11.792 21.3566 12.1187 21.6834 12.5049 21.6834C12.891 21.6834 13.2177 21.3566 13.2177 20.9408ZM9.77218 20.9408V10.6636C9.77218 10.2774 9.44545 9.95068 9.05931 9.95068C8.67317 9.95068 8.34644 10.2774 8.34644 10.6636V20.9705C8.34644 21.3566 8.67317 21.6834 9.05931 21.6834C9.44545 21.6537 9.77218 21.3566 9.77218 20.9408ZM20.1385 20.9408V10.6636C20.1385 10.2774 19.8118 9.95068 19.4256 9.95068C19.0395 9.95068 18.7128 10.2774 18.7128 10.6636V20.9705C18.7128 21.3566 19.0395 21.6834 19.4256 21.6834C19.8118 21.6537 20.1385 21.3566 20.1385 20.9408ZM23.5841 20.9408V15.8022C23.5841 15.416 23.2573 15.0893 22.8712 15.0893C22.4851 15.0893 22.1583 15.416 22.1583 15.8022V20.9408C22.1583 21.3269 22.4851 21.6537 22.8712 21.6537C23.2573 21.6537 23.5841 21.3566 23.5841 20.9408ZM16.6633 20.9408V15.8022C16.6633 15.416 16.3365 15.0893 15.9504 15.0893C15.5643 15.0893 15.2375 15.416 15.2375 15.8022V20.9408C15.2375 21.3269 15.5643 21.6537 15.9504 21.6537C16.3365 21.6537 16.6633 21.3566 16.6633 20.9408Z" fill="#A0A4AD"/>
</svg>
