<svg width="28" height="30" viewBox="0 0 28 30" fill="none" xmlns="http://www.w3.org/2000/svg">
<path d="M25.3981 17.7859C25.4001 17.7744 25.4024 17.7629 25.4043 17.7514L25.4081 17.7289L25.4099 17.7061C25.4169 17.6183 25.5776 15.5254 25.204 12.8253C24.9838 11.2338 24.6222 9.76258 24.129 8.45242C23.5057 6.79627 22.6688 5.39234 21.6416 4.27965C20.4245 2.96132 18.9416 2.04656 17.2116 1.54039C16.5381 0.852946 15.3976 0 13.8858 0C12.4055 0 11.1783 0.824114 10.4228 1.49707C8.62896 1.99375 7.09638 2.92367 5.84453 4.27965C4.8173 5.39234 3.98041 6.79627 3.35705 8.45242C2.86394 9.76258 2.50225 11.2338 2.28208 12.8253C1.99854 14.8747 2.02277 16.5741 2.05399 17.3126C1.56095 17.5451 0.733948 18.051 0.293825 18.969C-0.109008 19.8092 -0.0975887 20.7808 0.327832 21.8568L0.345388 21.9012L0.370545 21.9418C0.404159 21.9961 1.21718 23.2905 3.2287 24.9276C4.3968 25.8783 5.73537 26.754 7.20721 27.5303C9.03993 28.497 11.0866 29.3121 13.2903 29.953L13.4519 30L13.6113 29.946C13.6443 29.9349 16.9489 28.8116 20.2357 27.246C22.1812 26.3193 23.7453 25.4187 24.8847 24.5691C26.377 23.4563 27.1547 22.4301 27.2581 21.4359C27.4345 20.987 27.7635 19.5013 25.3981 17.7859ZM16.6898 2.55784C16.1773 2.86622 15.2107 3.31462 13.9228 3.31462C12.9294 3.31462 11.9091 3.05231 10.8823 2.53393C11.4594 1.96224 12.5705 1.07051 13.8858 1.07051C15.2131 1.07051 16.2119 2.00196 16.6898 2.55784ZM3.34249 12.972C3.66943 10.6088 4.50539 7.30837 6.6311 5.00581C7.44508 4.1241 8.39701 3.44519 9.47901 2.96959L9.75767 3.13592C11.1467 3.96481 12.548 4.38513 13.9228 4.38513C16.2966 4.38513 17.7473 3.13131 17.8079 3.07797L17.9561 2.94747C19.058 3.42342 20.0262 4.10887 20.8524 5.00303C22.9745 7.29973 23.8116 10.5907 24.1401 12.9471C24.4811 15.3924 24.3603 17.3688 24.3444 17.5986C24.0032 19.522 21.1997 20.7424 18.9027 21.4285C16.4982 22.1466 14.1301 22.4337 13.7431 22.4775C13.3561 22.4337 10.9879 22.1466 8.58339 21.4285C6.28643 20.7424 3.48284 19.5219 3.14167 17.5984C3.12568 17.369 3.00489 15.4122 3.34249 12.972ZM26.2647 21.0406L26.206 21.126L26.1976 21.2724C26.1706 21.7403 25.8104 22.5428 24.2477 23.7088C23.1656 24.5161 21.6636 25.3797 19.7833 26.2758C16.9589 27.6217 14.1177 28.6362 13.4265 28.8773C8.72591 27.4863 5.68402 25.5361 3.95393 24.1375C2.24287 22.7542 1.44687 21.6267 1.30432 21.4142C1.01249 20.6506 0.996151 19.9863 1.25579 19.439C1.49251 18.9399 1.92096 18.6093 2.26192 18.4117C2.90822 20.098 4.93134 21.4572 8.29121 22.4584C11.0023 23.2664 13.58 23.5373 13.6884 23.5485L13.7431 23.5541L13.7978 23.5485C13.9062 23.5373 16.4839 23.2664 19.195 22.4584C22.2624 21.5443 24.2156 20.3318 25.0242 18.8445C25.844 19.4922 26.1503 20.0309 26.2579 20.3906C26.3688 20.7617 26.2848 20.9936 26.2647 21.0406Z" fill="#A0A4AD"/>
<path d="M9.38003 17.314C9.4565 18.0185 9.24429 18.6345 9.24279 18.6388L8.92064 19.5361L9.85448 19.3438C10.0374 19.3062 10.2212 19.2871 10.4008 19.2871C12.0971 19.2871 13.1794 20.9971 13.1976 21.0264L13.7715 21.9665L14.1556 20.933C14.5423 19.8925 15.3386 19.365 16.5225 19.365C17.0472 19.365 17.4459 19.4759 17.4483 19.4765L18.5277 19.7886L18.0899 18.7538C17.8453 18.1758 18.0209 17.4767 18.6117 16.6758C19.105 16.0071 19.7042 15.5353 19.7097 15.531L20.468 14.9412L19.5675 14.6067C17.5866 13.871 18.3579 11.382 18.3913 11.2777L18.7356 10.2203L17.6944 10.6108C17.3916 10.7243 17.1051 10.7819 16.8431 10.7819C16.3682 10.7819 16.0653 10.5913 15.9176 10.4662C15.8885 9.00111 15.5628 7.84196 14.9482 7.01827C14.4295 6.32315 13.8822 6.1275 13.8215 6.10745L13.5609 6.02148L13.339 6.18288C11.7116 7.36644 11.6009 9.5714 11.622 10.4084C11.256 10.6105 10.8522 10.6575 10.5555 10.6575H10.5554C10.2077 10.6575 9.95428 10.5943 9.954 10.5942L9.04043 10.3539L9.30381 11.2611C9.82953 13.072 7.81833 14.5129 7.79899 14.5266L6.98926 15.0909L7.90394 15.4618C8.80145 15.8257 9.28425 16.4315 9.38003 17.314ZM9.63256 14.187C10.2197 13.3938 10.4994 12.556 10.4601 11.727C10.4912 11.7278 10.523 11.7282 10.5553 11.7282C10.5554 11.7282 10.5554 11.7282 10.5555 11.7282C11.3108 11.7282 11.9846 11.5126 12.5037 11.1047L12.7344 10.9223L12.7055 10.6301C12.7032 10.6068 12.5045 8.42956 13.7113 7.26485C13.8323 7.35848 13.9868 7.50625 14.1431 7.73216C14.4652 8.19772 14.8493 9.08775 14.8493 10.6838V10.859L14.9529 11.0003C15.185 11.3168 15.8443 11.8525 16.8431 11.8525C16.957 11.8525 17.0727 11.8457 17.1901 11.832C17.1552 12.1168 17.1363 12.4498 17.1611 12.8001C17.237 13.8733 17.6788 14.6994 18.4509 15.2292C17.8018 15.8819 16.869 17.0458 16.913 18.3102C16.7914 18.3005 16.6603 18.2946 16.5225 18.2946C15.2214 18.2946 14.1963 18.8069 13.5594 19.7564C12.9592 19.1001 11.8877 18.2271 10.4272 18.2167C10.4645 17.9364 10.4834 17.6005 10.4488 17.2426C10.3766 16.4963 10.0623 15.5382 9.04803 14.8588C9.23333 14.6753 9.43826 14.4495 9.63256 14.187Z" fill="#A0A4AD"/>
<path d="M13.6538 18.2845C15.4444 18.2845 16.901 16.8278 16.901 15.0373C16.901 13.2468 15.4444 11.79 13.6538 11.79C11.8633 11.79 10.4066 13.2467 10.4066 15.0373C10.4066 16.8278 11.8633 18.2845 13.6538 18.2845ZM13.6538 12.8606C14.8541 12.8606 15.8305 13.837 15.8305 15.0373C15.8305 16.2375 14.8541 17.214 13.6538 17.214C12.4536 17.214 11.4771 16.2375 11.4771 15.0373C11.4771 13.837 12.4536 12.8606 13.6538 12.8606Z" fill="#A0A4AD"/>
<path d="M19.1776 24.5194L13.6572 26.7895L8.31422 24.5217C8.04216 24.4061 7.7279 24.5332 7.61239 24.8053C7.49688 25.0774 7.62385 25.3917 7.89597 25.5071L13.4448 27.8622C13.5116 27.8906 13.5827 27.9048 13.6539 27.9048C13.723 27.9048 13.7922 27.8914 13.8575 27.8646L19.5847 25.5094C19.8581 25.397 19.9886 25.0842 19.8762 24.8108C19.7637 24.5375 19.4511 24.407 19.1776 24.5194Z" fill="#A0A4AD"/>
</svg>
