<svg width="30" height="30" viewBox="0 0 30 30" fill="none" xmlns="http://www.w3.org/2000/svg">
<g clip-path="url(#clip0_209_65)">
<path d="M11.3461 7.13865H11.7469V12.4983C11.7469 12.7491 11.9504 12.9526 12.2011 12.9526H19.6107C19.8614 12.9526 20.0649 12.7491 20.0649 12.4983V7.13865H20.4657C20.6616 7.13865 20.8355 7.01397 20.8969 6.82834C20.9593 6.64272 20.895 6.4374 20.7385 6.32022L16.1982 2.92272C16.036 2.80178 15.8157 2.80084 15.6544 2.92178L11.0747 6.31928C10.9172 6.43647 10.853 6.64084 10.9144 6.8274C10.9763 7.01303 11.1502 7.13865 11.3461 7.13865ZM16.5793 12.0427H15.315V10.4569C15.315 10.1101 15.5996 9.82694 15.9497 9.82694C16.1161 9.82694 16.2727 9.89209 16.3955 10.0135C16.5118 10.1279 16.5797 10.2891 16.5797 10.4565L16.5793 12.0427ZM15.9249 3.85365L19.0997 6.22928H12.7224L15.9249 3.85365ZM12.6563 7.13865H19.1555V12.0432H17.4882V10.4574C17.4882 10.0463 17.3208 9.64787 17.033 9.36803C16.7429 9.07787 16.3585 8.9185 15.9488 8.9185C15.0975 8.9185 14.4052 9.60897 14.4052 10.4574V12.0432H12.6563V7.13865ZM3.09285 15.4543H11.3461C11.5969 15.4543 11.8013 15.2508 11.8013 15.0001C11.8013 14.7493 11.5969 14.5449 11.3461 14.5449H3.09285C2.84207 14.5449 2.6377 14.7493 2.6377 15.0001C2.6377 15.2508 2.84207 15.4543 3.09285 15.4543ZM3.09285 18.6221H11.3461C11.5969 18.6221 11.8013 18.4187 11.8013 18.1669C11.8013 17.9162 11.5969 17.7127 11.3461 17.7127H3.09285C2.84207 17.7127 2.6377 17.9162 2.6377 18.1669C2.6377 18.4187 2.84207 18.6221 3.09285 18.6221ZM11.8013 21.3347C11.8013 21.084 11.5969 20.8805 11.3461 20.8805H3.09285C2.84207 20.8805 2.6377 21.084 2.6377 21.3347C2.6377 21.5865 2.84207 21.7899 3.09285 21.7899H11.3461C11.5969 21.7894 11.8013 21.5865 11.8013 21.3347Z" fill="#A0A4AD"/>
<path d="M29.4216 7.58615L28.7887 6.95334C28.0453 6.21084 26.865 6.18084 26.1577 6.88725L23.9437 9.10115V2.03522C23.9437 1.01428 23.1136 0.185059 22.0936 0.185059H8.91C8.90062 0.185059 8.89359 0.188809 8.88422 0.189746C8.84203 0.191621 8.80078 0.19959 8.76047 0.21459C8.74781 0.219277 8.73469 0.22209 8.72297 0.228184C8.67375 0.250215 8.62687 0.27834 8.58844 0.317715L0.132656 8.7735C0.0932812 8.81193 0.0660937 8.8574 0.0440625 8.90615C0.0375 8.91975 0.0342187 8.93475 0.0285937 8.94928C0.0159375 8.98771 0.0084375 9.02615 0.005625 9.06553C0.0046875 9.07537 0 9.08475 0 9.09459V27.9646C0 28.9855 0.829687 29.8147 1.85016 29.8147H22.0936C23.1136 29.8147 23.9437 28.9851 23.9437 27.9646V15.7616L28.3097 11.3957C28.3106 11.3957 28.3106 11.3947 28.3106 11.3947L29.4872 10.2172C30.195 9.51037 30.1659 8.32959 29.4216 7.58615ZM5.00344 5.18803L8.45484 1.73662V7.69865C8.45484 8.21756 8.03297 8.6399 7.51359 8.6399H1.55203L5.00344 5.18803ZM23.0348 27.9646C23.0348 28.4835 22.613 28.9058 22.0936 28.9058H1.85016C1.33125 28.9058 0.908906 28.484 0.908906 27.9646V9.54881H7.51359C8.53359 9.54881 9.36375 8.71912 9.36375 7.69865V1.09303H22.0931C22.612 1.09303 23.0344 1.51584 23.0344 2.03522V10.0105L12.7706 20.2752C12.7167 20.3282 12.6773 20.3952 12.6553 20.4683L11.5355 24.2751C11.4886 24.4344 11.5327 24.6074 11.6498 24.7246C11.7361 24.8118 11.8523 24.8582 11.9714 24.8582C12.0145 24.8582 12.0577 24.8516 12.0994 24.839L15.907 23.7191C15.9802 23.698 16.0462 23.6587 16.1002 23.6047L23.0344 16.6705L23.0348 27.9646ZM13.3889 21.1982L15.1767 22.9869L12.6436 23.7322L13.3889 21.1982ZM23.1722 15.2479C23.1694 15.2497 23.1675 15.2526 23.1647 15.2544L15.9473 22.4722L13.9031 20.4271L25.3012 9.02896L26.0025 9.73022L23.6494 12.0824C23.4717 12.2601 23.4717 12.5483 23.6494 12.7251C23.738 12.8137 23.8547 12.8587 23.9709 12.8587C24.0872 12.8587 24.2034 12.8137 24.2925 12.7251L26.6456 10.3729L27.3459 11.0741L23.1722 15.2479ZM28.8445 9.57459L27.9886 10.4315L25.9444 8.38631L26.8003 7.53037C27.1528 7.17787 27.757 7.2074 28.1461 7.59646L28.7789 8.22928C29.168 8.61787 29.198 9.22209 28.8445 9.57459Z" fill="#A0A4AD"/>
</g>
<defs>
<clipPath id="clip0_209_65">
<rect width="30" height="30" fill="white"/>
</clipPath>
</defs>
</svg>
