<svg width="30" height="30" viewBox="0 0 30 30" fill="none" xmlns="http://www.w3.org/2000/svg">
<g clip-path="url(#clip0_326_1600)">
<path d="M26.7852 15.1977H14.7986V3.21112C14.7986 3.0638 14.6781 2.94326 14.5307 2.94326H13.6602C11.9014 2.94038 10.1594 3.2853 8.53435 3.95818C6.90933 4.63106 5.43339 5.61861 4.19146 6.86402C2.96839 8.08331 1.99386 9.52861 1.32204 11.1196C0.622952 12.7697 0.264223 14.544 0.267354 16.3361C0.264474 18.0949 0.609395 19.837 1.28227 21.462C1.95515 23.087 2.9427 24.5629 4.18811 25.8049C5.41691 27.0337 6.84994 28.0013 8.4437 28.6743C10.0938 29.3734 11.8681 29.7321 13.6602 29.729C15.419 29.7319 17.1611 29.3869 18.7861 28.7141C20.4111 28.0412 21.887 27.0536 23.129 25.8082C24.3578 24.5794 25.3254 23.1464 25.9984 21.5526C26.6975 19.9025 27.0562 18.1282 27.0531 16.3361V15.4656C27.0531 15.3183 26.9325 15.1977 26.7852 15.1977ZM21.485 24.2312C20.4482 25.2599 19.2186 26.0739 17.8667 26.6266C16.5148 27.1794 15.0671 27.4599 13.6066 27.4522C10.6569 27.4388 7.88454 26.2837 5.7986 24.1977C3.69927 22.0984 2.54414 19.306 2.54414 16.3361C2.54414 13.3663 3.69927 10.5738 5.7986 8.47451C7.62673 6.64639 9.98053 5.53143 12.5218 5.27697V17.4745H24.7194C24.4616 20.0292 23.3366 22.3964 21.485 24.2312ZM29.7316 13.3361L29.6446 12.3919C29.36 9.30822 27.9906 6.39862 25.7874 4.20219C23.5828 2.00173 20.6792 0.639908 17.5776 0.351742L16.6301 0.264689C16.4727 0.251296 16.3388 0.371832 16.3388 0.529198V13.3897C16.3388 13.537 16.4593 13.6575 16.6066 13.6575L29.4638 13.6241C29.6212 13.6241 29.745 13.4901 29.7316 13.3361ZM18.6089 11.3875V2.79594C20.718 3.23739 22.6536 4.28193 24.1803 5.80264C25.7104 7.32942 26.7584 9.27139 27.1937 11.364L18.6089 11.3875Z" fill="#A0A4AD"/>
</g>
<defs>
<clipPath id="clip0_326_1600">
<rect width="30" height="30" fill="white"/>
</clipPath>
</defs>
</svg>
