<svg width="30" height="30" viewBox="0 0 30 30" fill="none" xmlns="http://www.w3.org/2000/svg">
<path d="M26.6006 23.4199C25.969 21.9239 25.0524 20.5649 23.9019 19.4188C22.755 18.2694 21.3962 17.353 19.9008 16.7201C19.8874 16.7135 19.874 16.7101 19.8606 16.7034C21.9466 15.1967 23.3026 12.7425 23.3026 9.97349C23.3026 5.38644 19.5861 1.66992 14.999 1.66992C10.412 1.66992 6.69547 5.38644 6.69547 9.97349C6.69547 12.7425 8.05149 15.1967 10.1374 16.7068C10.124 16.7135 10.1106 16.7168 10.0973 16.7235C8.59725 17.3563 7.25127 18.2637 6.09614 19.4222C4.94673 20.5691 4.0303 21.9279 3.39747 23.4233C2.77579 24.8873 2.44049 26.4569 2.40975 28.0472C2.40886 28.0829 2.41513 28.1184 2.42819 28.1517C2.44125 28.185 2.46084 28.2153 2.4858 28.2409C2.51076 28.2665 2.54059 28.2868 2.57353 28.3007C2.60648 28.3146 2.64186 28.3217 2.67761 28.3217H4.68654C4.83386 28.3217 4.95105 28.2045 4.95439 28.0606C5.02136 25.4757 6.0593 23.055 7.89413 21.2201C9.79256 19.3217 12.3138 18.2771 14.999 18.2771C17.6843 18.2771 20.2055 19.3217 22.1039 21.2201C23.9388 23.055 24.9767 25.4757 25.0437 28.0606C25.047 28.2079 25.1642 28.3217 25.3115 28.3217H27.3205C27.3562 28.3217 27.3916 28.3146 27.4245 28.3007C27.4575 28.2868 27.4873 28.2665 27.5123 28.2409C27.5372 28.2153 27.5568 28.185 27.5699 28.1517C27.5829 28.1184 27.5892 28.0829 27.5883 28.0472C27.5548 26.4467 27.2234 24.8898 26.6006 23.4199ZM14.999 15.7324C13.4622 15.7324 12.0158 15.1331 10.9276 14.0449C9.83944 12.9568 9.24011 11.5103 9.24011 9.97349C9.24011 8.43666 9.83944 6.99024 10.9276 5.90207C12.0158 4.8139 13.4622 4.21457 14.999 4.21457C16.5359 4.21457 17.9823 4.8139 19.0705 5.90207C20.1586 6.99024 20.758 8.43666 20.758 9.97349C20.758 11.5103 20.1586 12.9568 19.0705 14.0449C17.9823 15.1331 16.5359 15.7324 14.999 15.7324Z" fill="#A0A4AD"/>
</svg>
