<svg width="30" height="30" viewBox="0 0 30 30" fill="none" xmlns="http://www.w3.org/2000/svg">
<path d="M27.7234 23.702H25.0448V21.0234C25.0448 20.8761 24.9242 20.7555 24.7769 20.7555H23.1698C23.0225 20.7555 22.9019 20.8761 22.9019 21.0234V23.702H20.2234C20.076 23.702 19.9555 23.8225 19.9555 23.9698V25.577C19.9555 25.7243 20.076 25.8448 20.2234 25.8448H22.9019V28.5234C22.9019 28.6707 23.0225 28.7912 23.1698 28.7912H24.7769C24.9242 28.7912 25.0448 28.6707 25.0448 28.5234V25.8448H27.7234C27.8707 25.8448 27.9912 25.7243 27.9912 25.577V23.9698C27.9912 23.8225 27.8707 23.702 27.7234 23.702ZM10.3629 14.5412C10.3327 14.2499 10.316 13.9553 10.316 13.6573C10.316 13.1249 10.3662 12.606 10.46 12.1004C10.4834 11.9799 10.4198 11.856 10.3093 11.8058C9.85393 11.6015 9.4354 11.3203 9.0738 10.9654C8.6477 10.5522 8.31241 10.0548 8.0893 9.5048C7.8662 8.95483 7.76019 8.36439 7.77804 7.77115C7.80817 6.69638 8.24009 5.67517 8.99344 4.90508C9.82045 4.05798 10.9321 3.59593 12.114 3.60932C13.1821 3.61937 14.2133 4.0312 14.9934 4.76111C15.2579 5.00888 15.4856 5.28343 15.6765 5.57807C15.7434 5.68187 15.874 5.7254 15.9879 5.68522C16.5771 5.48098 17.1999 5.337 17.8394 5.27004C18.0269 5.24995 18.1341 5.04906 18.0504 4.88164C16.9622 2.72874 14.739 1.24214 12.1675 1.20196C8.45773 1.14504 5.36398 4.18857 5.36398 7.89839C5.36398 10.0011 6.33161 11.8761 7.84835 13.1049C6.78362 13.597 5.80259 14.2767 4.95215 15.1272C3.11732 16.9587 2.07938 19.3761 2.01241 21.9575C2.01152 21.9933 2.01779 22.0288 2.03085 22.0621C2.04391 22.0954 2.0635 22.1257 2.08846 22.1513C2.11342 22.1769 2.14325 22.1972 2.17619 22.2111C2.20914 22.225 2.24452 22.2321 2.28027 22.2321H4.15862C4.30259 22.2321 4.42313 22.1183 4.42648 21.9743C4.49009 20.0323 5.27692 18.2142 6.65973 16.8348C7.64411 15.8504 8.84947 15.1674 10.1653 14.8359C10.2925 14.7991 10.3796 14.6752 10.3629 14.5412ZM25.4466 13.6573C25.4466 9.99437 22.5035 7.01781 18.8539 6.96089C15.1441 6.90397 12.0537 9.94749 12.0537 13.6573C12.0537 15.76 13.0247 17.635 14.5381 18.8638C13.4623 19.3624 12.483 20.0471 11.6452 20.8861C9.8104 22.7176 8.77246 25.135 8.70549 27.7131C8.7046 27.7489 8.71087 27.7844 8.72393 27.8177C8.73699 27.851 8.75658 27.8813 8.78154 27.9069C8.8065 27.9325 8.83633 27.9528 8.86928 27.9667C8.90222 27.9805 8.9376 27.9877 8.97335 27.9877H10.8484C10.9923 27.9877 11.1129 27.8738 11.1162 27.7299C11.1798 25.7879 11.9667 23.9698 13.3495 22.5904C14.7925 21.1473 16.7077 20.3537 18.7501 20.3537C22.4466 20.3537 25.4466 17.3571 25.4466 13.6573ZM21.7803 16.6875C20.97 17.4977 19.8952 17.943 18.7501 17.943C17.605 17.943 16.5303 17.4977 15.72 16.6875C15.3157 16.2852 14.9962 15.8059 14.7805 15.2779C14.5648 14.75 14.4574 14.1841 14.4644 13.6138C14.4745 12.5156 14.9131 11.4542 15.6798 10.6674C16.4834 9.8437 17.5582 9.38499 18.7066 9.3716C19.8417 9.36156 20.9432 9.80352 21.7535 10.597C22.5838 11.4107 23.0392 12.4988 23.0392 13.6573C23.0359 14.8024 22.5905 15.8772 21.7803 16.6875Z" fill="#A0A4AD"/>
</svg>
